<?xml version="1.0" encoding="utf-8"?>
<!-- Generator: Adobe Illustrator 16.0.0, SVG Export Plug-In . SVG Version: 6.00 Build 0)  -->
<!DOCTYPE svg PUBLIC "-//W3C//DTD SVG 1.1//EN" "http://www.w3.org/Graphics/SVG/1.1/DTD/svg11.dtd">
<svg version="1.1" id="Layer_1" xmlns="http://www.w3.org/2000/svg" xmlns:xlink="http://www.w3.org/1999/xlink" x="0px" y="0px"
	 width="244.001px" height="216px" viewBox="0 0 244.001 216" enable-background="new 0 0 244.001 216" xml:space="preserve">
<g id="change1">
	<path fill="#007BB6" d="M200,0H15.943C7.144,0-0.001,6.977-0.001,15.562v184.852c0,8.602,7.145,15.586,15.944,15.586H200
		c8.809,0,15.999-6.984,15.999-15.586V15.562C215.999,6.977,208.809,0,200,0z"/>
</g>
<g id="change2">
	<path fill="#FFFFFF" d="M32.009,80.984H64.06v103.078H32.009V80.984z M48.036,29.738c10.242,0,18.566,8.324,18.566,18.57
		c0,10.258-8.324,18.582-18.566,18.582c-10.27,0-18.57-8.324-18.57-18.582C29.466,38.062,37.767,29.738,48.036,29.738"/>
	<path fill="#FFFFFF" d="M84.153,80.984h30.734v14.078h0.438c4.277-8.102,14.73-16.648,30.316-16.648
		c32.418,0,38.406,21.344,38.406,49.109v56.539h-32v-50.125c0-11.961-0.234-27.336-16.652-27.336
		c-16.672,0-19.215,13.023-19.215,26.469v50.992H84.153V80.984z"/>
</g>
<g id="change3">
	<polygon points="222.922,174.469 226,174.469 226,184.062 227.672,184.062 227.672,174.469 230.742,174.469 230.742,172.797 
		222.922,172.797 	"/>
	<polygon points="241.617,172.797 238.332,181.062 235.051,172.797 232.668,172.797 232.668,184.062 234.332,184.062 
		234.332,175.492 237.777,184.062 238.891,184.062 242.336,175.492 242.336,184.062 244,184.062 244,172.797 	"/>
</g>
</svg>
